<svg width="42" height="42" viewBox="0 0 42 42" fill="none" xmlns="http://www.w3.org/2000/svg">
<path d="M24.9375 17.0625H32.8125V19.6875H24.9375V17.0625ZM17.0625 27.5625H14.4375V24.9375H11.8125V27.5625H9.1875V30.1875H11.8125V32.8125H14.4375V30.1875H17.0625V27.5625ZM9.1875 11.8125H17.0625V14.4375H9.1875V11.8125ZM24.9375 22.3125H32.8125V24.9375H24.9375V22.3125Z" fill="white"/>
<path d="M35.4375 3.9375H6.5625C5.86631 3.9375 5.19863 4.21406 4.70634 4.70634C4.21406 5.19863 3.9375 5.86631 3.9375 6.5625V35.4375C3.9375 36.1337 4.21406 36.8014 4.70634 37.2937C5.19863 37.7859 5.86631 38.0625 6.5625 38.0625H35.4375C36.1337 38.0625 36.8014 37.7859 37.2937 37.2937C37.7859 36.8014 38.0625 36.1337 38.0625 35.4375V6.5625C38.0625 5.86631 37.7859 5.19863 37.2937 4.70634C36.8014 4.21406 36.1337 3.9375 35.4375 3.9375ZM19.6875 6.5625V19.6875H6.5625V6.5625H19.6875ZM6.5625 22.3125H19.6875V35.4375H6.5625V22.3125ZM22.3125 35.4375V6.5625H35.4375V35.4375H22.3125Z" fill="white"/>
</svg>
