<svg width="42" height="42" viewBox="0 0 42 42" fill="none" xmlns="http://www.w3.org/2000/svg">
<path fill-rule="evenodd" clip-rule="evenodd" d="M7 8.75C7 7.35761 7.55312 6.02226 8.53769 5.03769C9.52226 4.05312 10.8576 3.5 12.25 3.5H29.75C31.1424 3.5 32.4777 4.05312 33.4623 5.03769C34.4469 6.02226 35 7.35761 35 8.75V36.75C34.9998 37.0796 34.9065 37.4025 34.7309 37.6814C34.5553 37.9603 34.3044 38.1839 34.0073 38.3266C33.7101 38.4692 33.3787 38.525 33.0513 38.4876C32.7238 38.4502 32.4135 38.321 32.1562 38.115L28.875 35.49L25.5938 38.115C25.2576 38.3843 24.8339 38.5202 24.4038 38.4966C23.9738 38.473 23.5675 38.2917 23.2628 37.9872L21 35.7245L18.7372 37.9872C18.4328 38.2919 18.0266 38.4736 17.5965 38.4975C17.1664 38.5214 16.7426 38.3858 16.4062 38.1167L13.125 35.49L9.84375 38.115C9.58645 38.321 9.2762 38.4502 8.94873 38.4876C8.62126 38.525 8.28987 38.4692 7.99272 38.3266C7.69557 38.1839 7.44475 37.9603 7.26912 37.6814C7.09349 37.4025 7.00021 37.0796 7 36.75V8.75ZM12.25 7C11.7859 7 11.3408 7.18437 11.0126 7.51256C10.6844 7.84075 10.5 8.28587 10.5 8.75V33.11L12.0312 31.885C12.3416 31.6365 12.7274 31.5011 13.125 31.5011C13.5226 31.5011 13.9084 31.6365 14.2188 31.885L17.3688 34.405L19.7628 32.0127C20.0909 31.6847 20.536 31.5004 21 31.5004C21.464 31.5004 21.9091 31.6847 22.2372 32.0127L24.6295 34.405L27.7812 31.885C28.0916 31.6365 28.4774 31.5011 28.875 31.5011C29.2726 31.5011 29.6584 31.6365 29.9688 31.885L31.5 33.11V8.75C31.5 8.28587 31.3156 7.84075 30.9874 7.51256C30.6593 7.18437 30.2141 7 29.75 7H12.25ZM14 15.75C14 15.2859 14.1844 14.8408 14.5126 14.5126C14.8408 14.1844 15.2859 14 15.75 14H26.25C26.7141 14 27.1592 14.1844 27.4874 14.5126C27.8156 14.8408 28 15.2859 28 15.75C28 16.2141 27.8156 16.6592 27.4874 16.9874C27.1592 17.3156 26.7141 17.5 26.25 17.5H15.75C15.2859 17.5 14.8408 17.3156 14.5126 16.9874C14.1844 16.6592 14 16.2141 14 15.75ZM15.75 21C15.2859 21 14.8408 21.1844 14.5126 21.5126C14.1844 21.8408 14 22.2859 14 22.75C14 23.2141 14.1844 23.6592 14.5126 23.9874C14.8408 24.3156 15.2859 24.5 15.75 24.5H21C21.4641 24.5 21.9092 24.3156 22.2374 23.9874C22.5656 23.6592 22.75 23.2141 22.75 22.75C22.75 22.2859 22.5656 21.8408 22.2374 21.5126C21.9092 21.1844 21.4641 21 21 21H15.75Z" fill="white"/>
</svg>
