<svg width="42" height="42" viewBox="0 0 42 42" fill="none" xmlns="http://www.w3.org/2000/svg">
<path d="M14.4375 24.9375V27.5625H6.5625V24.9375H9.1875V18.375H6.5625V15.75H9.1875V14.4375H11.8125V24.9375H14.4375ZM24.9375 24.9375H19.6875V22.3125H22.3125C23.7602 22.3125 24.9375 21.1352 24.9375 19.6875V17.0625C24.9375 15.6148 23.7602 14.4375 22.3125 14.4375H17.0625V17.0625H22.3125V19.6875H19.6875C18.2398 19.6875 17.0625 20.8648 17.0625 22.3125V27.5625H24.9375V24.9375ZM32.8125 14.4375H27.5625V17.0625H32.8125V19.6875H28.875V22.3125H32.8125V24.9375H27.5625V27.5625H32.8125C34.2602 27.5625 35.4375 26.3852 35.4375 24.9375V17.0625C35.4375 15.6148 34.2602 14.4375 32.8125 14.4375ZM2.625 5.25V10.5H5.25V5.25H10.5V2.625H5.25C4.55381 2.625 3.88613 2.90156 3.39384 3.39384C2.90156 3.88613 2.625 4.55381 2.625 5.25ZM36.75 2.625H31.5V5.25H36.75V10.5H39.375V5.25C39.375 4.55381 39.0984 3.88613 38.6062 3.39384C38.1139 2.90156 37.4462 2.625 36.75 2.625ZM5.25 36.75V31.5H2.625V36.75C2.625 37.4462 2.90156 38.1139 3.39384 38.6062C3.88613 39.0984 4.55381 39.375 5.25 39.375H10.5V36.75H5.25ZM36.75 31.5V36.75H31.5V39.375H36.75C37.4462 39.375 38.1139 39.0984 38.6062 38.6062C39.0984 38.1139 39.375 37.4462 39.375 36.75V31.5H36.75Z" fill="white"/>
</svg>
